<svg id="apple" xmlns="http://www.w3.org/2000/svg" width="77.677" height="77.677" viewBox="0 0 77.677 77.677">
  <path id="apple-2" data-name="apple" d="M32.921,13.247c-.185.108-4.6,2.391-4.6,7.453.208,5.773,5.571,7.8,5.663,7.8a20.334,20.334,0,0,1-2.936,5.536c-1.687,2.393-3.56,4.8-6.4,4.8-2.7,0-3.676-1.595-6.8-1.595-3.352,0-4.3,1.595-6.866,1.595-2.844,0-4.855-2.542-6.634-4.912A23.1,23.1,0,0,1,0,21.282,12.6,12.6,0,0,1,1.759,14.3,10.574,10.574,0,0,1,10.4,9.391c2.727-.086,5.155,1.745,6.819,1.745,1.6,0,4.577-1.745,7.952-1.745A9.518,9.518,0,0,1,32.921,13.247ZM16.993,8.9c-.485-2.262.855-4.524,2.1-5.967A9.122,9.122,0,0,1,25.384,0a8.094,8.094,0,0,1-2.311,6.1A7.294,7.294,0,0,1,16.993,8.9Z" transform="translate(21.847 16.992)"/>
</svg>
