<svg id="google_play" xmlns="http://www.w3.org/2000/svg" xmlns:xlink="http://www.w3.org/1999/xlink" width="44.387" height="44.387" viewBox="0 0 44.387 44.387">
  <defs>
    <clipPath id="clip-path">
      <path id="polygon" d="M31.97,15.813a2.525,2.525,0,0,1,0,4.438L3.823,35.739A2.571,2.571,0,0,1,0,33.521V2.544A2.571,2.571,0,0,1,3.823.325Z" transform="translate(9.71 4.161)" fill="#c4c4c4"/>
    </clipPath>
    <linearGradient id="linear-gradient" x1="0.653" y1="0.3" x2="0" y2="0.641" gradientUnits="objectBoundingBox">
      <stop offset="0" stop-color="#00c3ff"/>
      <stop offset="1" stop-color="#1be2fa"/>
    </linearGradient>
    <linearGradient id="linear-gradient-2" y1="0.487" x2="1.069" y2="0.487" gradientUnits="objectBoundingBox">
      <stop offset="0" stop-color="#ffce00"/>
      <stop offset="1" stop-color="#ffea00"/>
    </linearGradient>
    <linearGradient id="linear-gradient-3" y1="1.083" x2="0.871" y2="0.167" gradientUnits="objectBoundingBox">
      <stop offset="0" stop-color="#de2453"/>
      <stop offset="1" stop-color="#fe3944"/>
    </linearGradient>
    <linearGradient id="linear-gradient-4" x1="0.016" x2="0.881" y2="0.829" gradientUnits="objectBoundingBox">
      <stop offset="0" stop-color="#11d574"/>
      <stop offset="1" stop-color="#01f176"/>
    </linearGradient>
  </defs>
  <g id="polygon-2" data-name="polygon" clip-path="url(#clip-path)">
    <path id="blue" d="M.88,35.021,18.438,17.365,1.17,0A2.507,2.507,0,0,0,0,2.129V33.106A2.494,2.494,0,0,0,.88,35.021Z" transform="translate(9.71 4.576)" fill="url(#linear-gradient)"/>
    <path id="yellow" d="M13.532,4.088a2.525,2.525,0,0,1,0,4.438l-7.1,3.907L0,6.054,6.1,0Z" transform="translate(28.147 15.887)" fill="url(#linear-gradient-2)"/>
    <path id="red" d="M23.989,6.379,17.557,0,0,17.656a2.586,2.586,0,0,0,2.943.3Z" transform="translate(10.59 21.941)" fill="url(#linear-gradient-3)"/>
    <path id="green" d="M0,.414,17.268,17.779l6.1-6.054L2.654.325A2.578,2.578,0,0,0,0,.414Z" transform="translate(10.879 4.161)" fill="url(#linear-gradient-4)"/>
  </g>
</svg>
