<svg id="Platform_Instagram_Shape_Original_Colored_False" data-name="Platform=Instagram, Shape=Original, Colored=False" xmlns="http://www.w3.org/2000/svg" width="36" height="36" viewBox="0 0 36 36">
  <path id="Vector" d="M13.092,0c-3.555,0-4,.016-5.4.079A9.606,9.606,0,0,0,4.517.687,6.41,6.41,0,0,0,2.2,2.2,6.426,6.426,0,0,0,.687,4.516,9.563,9.563,0,0,0,.079,7.693C.016,9.089,0,9.536,0,13.091s.016,4,.079,5.4a9.621,9.621,0,0,0,.608,3.177A6.415,6.415,0,0,0,2.2,23.984a6.41,6.41,0,0,0,2.318,1.511,9.614,9.614,0,0,0,3.178.608c1.4.064,1.842.079,5.4.079s4-.016,5.4-.079a9.62,9.62,0,0,0,3.179-.608,6.707,6.707,0,0,0,3.828-3.83,9.7,9.7,0,0,0,.608-3.177c.063-1.4.079-1.841.079-5.4s-.016-4-.079-5.4a9.7,9.7,0,0,0-.608-3.177A6.425,6.425,0,0,0,23.983,2.2,6.4,6.4,0,0,0,21.665.687a9.636,9.636,0,0,0-3.18-.608C17.088.016,16.644,0,13.088,0ZM11.917,2.359h1.174c3.5,0,3.909.013,5.29.075a7.247,7.247,0,0,1,2.43.451,4.048,4.048,0,0,1,1.5.979A4.063,4.063,0,0,1,23.3,5.37a7.233,7.233,0,0,1,.451,2.43c.063,1.38.076,1.795.076,5.288s-.014,3.908-.076,5.288a7.241,7.241,0,0,1-.451,2.43,4.341,4.341,0,0,1-2.484,2.483,7.221,7.221,0,0,1-2.43.451c-1.38.063-1.794.076-5.29.076S9.182,23.8,7.8,23.74a7.261,7.261,0,0,1-2.431-.451,4.055,4.055,0,0,1-1.505-.979,4.057,4.057,0,0,1-.98-1.5,7.233,7.233,0,0,1-.451-2.43c-.063-1.38-.075-1.795-.075-5.29s.013-3.908.075-5.288a7.248,7.248,0,0,1,.451-2.431,4.056,4.056,0,0,1,.98-1.505,4.063,4.063,0,0,1,1.505-.98A7.231,7.231,0,0,1,7.8,2.429c1.208-.055,1.676-.071,4.115-.074Zm8.162,2.174A1.571,1.571,0,1,0,21.65,6.1a1.571,1.571,0,0,0-1.571-1.57ZM13.092,6.368a6.722,6.722,0,1,0,6.721,6.723,6.723,6.723,0,0,0-6.721-6.723Zm0,2.359a4.364,4.364,0,1,1-4.364,4.364,4.364,4.364,0,0,1,4.364-4.364Z" transform="translate(4.909 4.909)" fill="#39667a"/>
</svg>
