<svg id="Iconly_Bold_Star" data-name="Iconly/Bold/Star" xmlns="http://www.w3.org/2000/svg" width="20" height="20" viewBox="0 0 20 20">
  <g id="Star">
    <path id="Star-2" data-name="Star" d="M13.266,9.85a.917.917,0,0,0-.266.808l.741,4.1a.9.9,0,0,1-.375.9.917.917,0,0,1-.975.067L8.7,13.8a.942.942,0,0,0-.417-.109H8.057a.676.676,0,0,0-.225.075L4.141,15.7a.974.974,0,0,1-.592.092.926.926,0,0,1-.742-1.059l.742-4.1a.933.933,0,0,0-.266-.816L.274,6.9A.9.9,0,0,1,.05,5.958a.936.936,0,0,1,.741-.625l4.142-.6a.927.927,0,0,0,.733-.507L7.491.483A.867.867,0,0,1,7.657.258L7.732.2A.559.559,0,0,1,7.867.092L7.957.058,8.1,0H8.45a.932.932,0,0,1,.733.5l1.849,3.725a.926.926,0,0,0,.692.507l4.142.6a.945.945,0,0,1,.758.625.905.905,0,0,1-.242.942Z" transform="translate(1.666 2.083)" fill="#2db7ae"/>
  </g>
</svg>
