<svg id="vuesax_linear_tag" data-name="vuesax/linear/tag" xmlns="http://www.w3.org/2000/svg" width="96" height="96" viewBox="0 0 96 96">
  <g id="vuesax_linear_tag-2" data-name="vuesax/linear/tag">
    <g id="tag">
      <path id="Vector" d="M5.619,50.105l18.12,18.12a19.121,19.121,0,0,0,27,0L68.3,50.665a19.121,19.121,0,0,0,0-27L50.139,5.585a19,19,0,0,0-14.4-5.56l-20,.96A15.455,15.455,0,0,0,.979,15.665l-.96,20A19.216,19.216,0,0,0,5.619,50.105Z" transform="translate(11.061 11.095)" fill="none" stroke="#2db7ae" stroke-linecap="round" stroke-linejoin="round" stroke-width="5"/>
      <path id="Vector-2" data-name="Vector" d="M20,10A10,10,0,1,1,10,0,10,10,0,0,1,20,10Z" transform="translate(28 28)" fill="none" stroke="#2db7ae" stroke-linecap="round" stroke-width="5"/>
      <path id="Vector-3" data-name="Vector" d="M0,0H96V96H0Z" fill="none" opacity="0"/>
    </g>
  </g>
</svg>
