<svg id="vuesax_linear_ticket-discount" data-name="vuesax/linear/ticket-discount" xmlns="http://www.w3.org/2000/svg" width="96" height="96" viewBox="0 0 96 96">
  <g id="vuesax_linear_ticket-discount-2" data-name="vuesax/linear/ticket-discount">
    <g id="ticket-discount">
      <path id="Vector" d="M70,34A10,10,0,0,1,80,24V20C80,4,76,0,60,0H20C4,0,0,4,0,20v2A10,10,0,0,1,10,32,10,10,0,0,1,0,42v2C0,60,4,64,20,64H60c16,0,20-4,20-20A10,10,0,0,1,70,34Z" transform="translate(8 16)" fill="none" stroke="#2db7ae" stroke-linecap="round" stroke-linejoin="round" stroke-width="5"/>
      <path id="Vector-2" data-name="Vector" d="M0,24,24,0" transform="translate(36 35)" fill="none" stroke="#2db7ae" stroke-linecap="round" stroke-linejoin="round" stroke-width="5"/>
      <path id="Vector-3" data-name="Vector" d="M1.978,2h.036" transform="translate(58 57)" fill="none" stroke="#2db7ae" stroke-linecap="round" stroke-linejoin="round" stroke-width="5"/>
      <path id="Vector-4" data-name="Vector" d="M1.978,2h.036" transform="translate(34 35)" fill="none" stroke="#2db7ae" stroke-linecap="round" stroke-linejoin="round" stroke-width="5"/>
      <path id="Vector-5" data-name="Vector" d="M0,0H96V96H0Z" fill="none" opacity="0"/>
    </g>
  </g>
</svg>
