<svg id="Platform_Twitter_Shape_Original_Colored_False" data-name="Platform=Twitter, Shape=Original, Colored=False" xmlns="http://www.w3.org/2000/svg" width="36" height="36" viewBox="0 0 36 36">
  <path id="Vector" d="M20.862,5.09c.009.225.012.45.012.674,0,6.817-4.8,14.687-13.565,14.687A12.782,12.782,0,0,1,0,18.131a10.417,10.417,0,0,0,1.137.072,9.1,9.1,0,0,0,5.922-2.218A4.828,4.828,0,0,1,2.6,12.408a4.363,4.363,0,0,0,.9.092,4.3,4.3,0,0,0,1.257-.184A5.072,5.072,0,0,1,.932,7.257V7.2a4.621,4.621,0,0,0,2.162.644,5.3,5.3,0,0,1-2.123-4.3A5.473,5.473,0,0,1,1.618.94a13.211,13.211,0,0,0,9.827,5.4,5.618,5.618,0,0,1-.123-1.175A4.976,4.976,0,0,1,16.091,0,4.6,4.6,0,0,1,19.57,1.625,8.949,8.949,0,0,0,22.6.378,5.1,5.1,0,0,1,20.5,3.23a8.941,8.941,0,0,0,2.739-.807A10.188,10.188,0,0,1,20.862,5.09Z" transform="translate(7.13 8.524)" fill="#39667a"/>
</svg>
